<!-- Generated by IcoMoon.io -->
<svg version="1.1" xmlns="http://www.w3.org/2000/svg" width="782" height="1024" viewBox="0 0 782 1024">
<title></title>
<g id="icomoon-ignore">
</g>
<path fill="#f36d32" opacity="0.3" d="M662.756 233.244c-27.022 0-51.2-9.956-69.689-28.444s-28.444-42.667-28.444-69.689v-135.111h-436.622c-34.133 0-66.844 12.8-91.022 36.978s-36.978 56.889-36.978 91.022v768c0 34.133 14.222 66.844 36.978 91.022 24.178 24.178 56.889 36.978 91.022 36.978h523.378c34.133 0 66.844-12.8 91.022-36.978s36.978-56.889 36.978-91.022v-662.756z"></path>
<path fill="#f36d32" d="M779.378 233.244h-116.622c-27.022 0-51.2-9.956-69.689-28.444s-28.444-42.667-28.444-69.689v-135.111z"></path>
<path fill="#f36d32" d="M618.667 715.378h-489.244c-4.267 0-8.533-2.844-12.8-5.689-2.844-2.844-4.267-7.111-4.267-12.8 0-4.267 1.422-8.533 4.267-12.8 4.267-2.844 8.533-4.267 12.8-4.267h489.244c5.689 0 9.956 1.422 12.8 4.267 2.844 4.267 5.689 8.533 5.689 12.8q0 4.267-1.422 7.111t-4.267 5.689-5.689 4.267-7.111 1.422z"></path>
<path fill="#f36d32" d="M618.667 514.844h-489.244c-4.267 0-8.533-1.422-12.8-5.689-2.844-2.844-4.267-7.111-4.267-11.378 0-5.689 1.422-9.956 4.267-12.8 4.267-4.267 8.533-5.689 12.8-5.689h489.244q4.267 0 7.111 1.422t5.689 4.267q2.844 1.422 4.267 5.689 1.422 2.844 1.422 7.111c0 4.267-2.844 8.533-5.689 11.378-2.844 4.267-7.111 5.689-12.8 5.689z"></path>
<path fill="#f36d32" d="M618.667 614.4h-489.244c-4.267 0-8.533-1.422-12.8-4.267-2.844-4.267-4.267-8.533-4.267-12.8s1.422-9.956 4.267-12.8c4.267-2.844 8.533-5.689 12.8-5.689h489.244c5.689 0 9.956 2.844 12.8 5.689s5.689 8.533 5.689 12.8q0 2.844-1.422 7.111-1.422 2.844-4.267 5.689-2.844 1.422-5.689 2.844t-7.111 1.422z"></path>
<path fill="#f36d32" d="M426.667 415.289h-297.244c-4.267 0-8.533-2.844-12.8-5.689-2.844-2.844-4.267-8.533-4.267-12.8s1.422-8.533 4.267-12.8c4.267-2.844 8.533-4.267 12.8-4.267h297.244c4.267 0 8.533 1.422 11.378 4.267 4.267 4.267 5.689 8.533 5.689 12.8s-1.422 9.956-5.689 12.8c-2.844 2.844-7.111 5.689-11.378 5.689z"></path>
<path fill="#f36d32" d="M426.667 314.311h-297.244c-4.267 0-8.533-1.422-12.8-4.267-2.844-4.267-4.267-8.533-4.267-12.8 0-5.689 1.422-9.956 4.267-12.8 4.267-2.844 8.533-5.689 12.8-5.689h297.244c4.267 0 8.533 2.844 11.378 5.689 4.267 2.844 5.689 7.111 5.689 12.8 0 4.267-1.422 8.533-5.689 12.8-2.844 2.844-7.111 4.267-11.378 4.267z"></path>
<path fill="#f36d32" d="M610.133 278.756h-83.911c-14.222 0-25.6 12.8-25.6 27.022v83.911c0 14.222 11.378 25.6 25.6 25.6h83.911c14.222 0 27.022-11.378 27.022-25.6v-83.911c0-14.222-12.8-27.022-27.022-27.022z"></path>
</svg>
