<svg width="28" height="18" viewBox="0 0 18 18" fill="none" xmlns="http://www.w3.org/2000/svg">
  <path
    d="M6.25 17.25H2.58333C1.575 17.25 0.75 16.425 0.75 15.4167V2.58333C0.75 1.575 1.575 0.75 2.58333 0.75H6.25C7.25833 0.75 8.08333 1.575 8.08333 2.58333V15.4167C8.08333 16.425 7.25833 17.25 6.25 17.25ZM11.75 17.25H15.4167C16.425 17.25 17.25 16.425 17.25 15.4167V10.8333C17.25 9.825 16.425 9 15.4167 9H11.75C10.7417 9 9.91667 9.825 9.91667 10.8333V15.4167C9.91667 16.425 10.7417 17.25 11.75 17.25ZM17.25 5.33333V2.58333C17.25 1.575 16.425 0.75 15.4167 0.75H11.75C10.7417 0.75 9.91667 1.575 9.91667 2.58333V5.33333C9.91667 6.34167 10.7417 7.16667 11.75 7.16667H15.4167C16.425 7.16667 17.25 6.34167 17.25 5.33333Z"
    fill="#000"/>
</svg>
